<svg xmlns="http://www.w3.org/2000/svg" viewBox="0 0 24 20.63"><defs><style>.cls-1{fill:#e2e2e2;}</style></defs><title>Имя</title><g id="Слой_2" data-name="Слой 2"><g id="_6_Communication" data-name="6 Communication"><g id="_1_Avatar" data-name="1 Avatar"><path class="cls-1" d="M23.77,20.25l.06-.06s0-.07.05-.1l0-.07,0-.08,0-.11a.13.13,0,0,1,0-.06c0-.05,0-.09,0-.14h0s0-.06,0-.09a.31.31,0,0,0,0-.1v0h0l-.75-4a3.51,3.51,0,0,0-2.06-2.57l-4.64-2a5.28,5.28,0,0,0,.72-2.65v-3a5.25,5.25,0,0,0-10.5,0v3a5.28,5.28,0,0,0,.72,2.65l-4.64,2A3.51,3.51,0,0,0,.77,15.46l-.75,4H0v0a.31.31,0,0,0,0,.1s0,.05,0,.09H0c0,.05,0,.09,0,.14a.13.13,0,0,1,0,.06l0,.11,0,.08,0,.07.05.1.06.06.06.08.08.06.07.07.07,0,.11.06.05,0,.14,0H23.19l.14,0,.05,0,.11-.06.07,0,.07-.07.08-.06Zm-15-15a3.25,3.25,0,0,1,6.5,0v3a3.25,3.25,0,0,1-6.5,0ZM3.62,14.73,8.81,12.5l.07,0a5.2,5.2,0,0,0,6.24,0l.07,0,5.19,2.23a1.48,1.48,0,0,1,.88,1.1l.53,2.8H2.21l.53-2.8A1.48,1.48,0,0,1,3.62,14.73Z"/></g></g></g></svg>