<svg xmlns="http://www.w3.org/2000/svg" viewBox="0 0 24 24"><defs><style>.cls-1{fill:#e2e2e2;}</style></defs><title>телефон</title><g id="Слой_2" data-name="Слой 2"><g id="_6_Communication" data-name="6 Communication"><g id="_13_Handset_5" data-name="13 Handset_5"><path class="cls-1" d="M17.86,24A5.87,5.87,0,0,1,15,23.25,36.7,36.7,0,0,1,.72,9,5.73,5.73,0,0,1,2,1.86L3.5.62a2.52,2.52,0,0,1,3.69.49l3,4.3a1,1,0,0,1,0,1.14L8.67,8.76a20.79,20.79,0,0,0,6.71,6.68l2.25-1.08a1,1,0,0,1,.94.05l4.13,2.45a2.52,2.52,0,0,1,.64,3.79L22.23,22A5.72,5.72,0,0,1,17.86,24ZM5.12,2a.5.5,0,0,0-.33.12L3.32,3.4A3.71,3.71,0,0,0,2.47,8,34.67,34.67,0,0,0,16,21.5h0a3.73,3.73,0,0,0,4.7-.81l1.11-1.33a.52.52,0,0,0,.12-.42.54.54,0,0,0-.25-.36L18,16.4l-2.25,1.08a1,1,0,0,1-.94,0,22.8,22.8,0,0,1-8.2-8.21,1,1,0,0,1,0-1.07L8.13,6,5.55,2.25A.53.53,0,0,0,5.19,2Z"/><path class="cls-1" d="M23.25,12a.76.76,0,0,1-.75-.75A9.79,9.79,0,0,0,12.73,1.5.74.74,0,0,1,12,.75.75.75,0,0,1,12.73,0,11.29,11.29,0,0,1,24,11.28.76.76,0,0,1,23.25,12Z"/><path class="cls-1" d="M19.05,12.08a.75.75,0,0,1-.75-.75A5.64,5.64,0,0,0,12.67,5.7a.75.75,0,0,1,0-1.5,7.14,7.14,0,0,1,7.13,7.13A.74.74,0,0,1,19.05,12.08Z"/></g></g></g></svg>